<svg version="1.1" id="Layer_1" xmlns="http://www.w3.org/2000/svg" xmlns:xlink="http://www.w3.org/1999/xlink" x="0px" y="0px"
	 width="50" height="50" viewBox="50 50 430 430" enable-background="new 0 0 496 496" xml:space="preserve">
<path fill="#73D4D3" opacity="1.000000" stroke="none" 
	d="
M196.877716,383.361816 
	C146.677200,366.996735 112.513664,334.222107 97.970207,283.968262 
	C81.644012,227.554276 95.062195,177.419266 136.353653,135.168762 
	C136.819382,134.692230 137.387863,134.297241 137.776093,133.767288 
	C139.069366,132.001862 142.257797,131.032059 141.139359,128.245728 
	C140.047607,125.525856 137.154373,126.552750 134.907333,126.413429 
	C133.804260,126.345032 132.484192,126.587898 132.180252,124.988670 
	C132.545120,123.668442 133.654404,123.817970 134.612411,123.722336 
	C142.635315,122.921440 147.235275,118.111969 147.608643,109.918358 
	C147.765518,106.475845 147.634750,103.020226 147.634750,98.467697 
	C149.795120,100.658592 149.245880,102.302910 149.332153,103.742043 
	C149.461594,105.900909 149.203506,108.114105 149.575806,110.221970 
	C151.225662,119.563217 153.328323,120.550270 161.212509,115.683823 
	C173.342804,108.196495 186.288177,102.610779 199.986938,98.725204 
	C201.240402,98.369652 202.465561,97.914337 203.791031,97.476578 
	C202.326202,92.762787 198.430405,92.367195 194.060165,91.815666 
	C203.772278,88.494026 203.772278,88.494026 205.329407,81.130722 
	C207.171494,86.960800 209.726776,91.298737 217.367310,90.800430 
	C213.955612,93.013618 210.411896,92.375343 208.772781,95.900215 
	C274.777222,86.499580 328.213745,106.812096 365.052734,163.342834 
	C386.970917,196.977036 392.704651,234.573227 383.984741,273.612061 
	C364.895386,359.074493 279.694000,407.270752 196.877716,383.361816 
M318.132019,127.391029 
	C277.648438,100.762032 234.640442,95.610786 189.118713,112.343269 
	C177.049393,116.779610 166.446335,123.911987 155.850296,131.022354 
	C150.948944,134.311371 149.366913,139.091736 149.301483,144.704865 
	C149.278549,146.672485 149.983749,148.838730 148.225174,151.232010 
	C146.825089,146.939468 148.503891,142.827194 146.940628,139.154831 
	C146.264587,139.350342 145.859512,139.345657 145.648804,139.545685 
	C111.744507,171.731934 96.811012,211.389526 101.705917,257.612946 
	C105.442833,292.901276 121.653008,322.565155 148.581055,345.936981 
	C178.866821,372.223145 214.420197,383.326385 254.043137,379.410248 
	C288.453979,376.009308 317.738312,360.905334 341.184845,335.320496 
	C371.467133,302.276459 383.015167,263.107513 376.244171,219.105423 
	C370.330841,180.677155 350.163208,150.512512 318.132019,127.391029 
z"/>
<path fill="#73D4D3" opacity="1.000000" stroke="none" 
	d="
M176.622742,221.440674 
	C176.710602,210.815384 176.153336,200.792252 170.430725,191.776352 
	C166.806381,186.066254 161.791336,183.312042 155.088531,183.393936 
	C153.025162,183.419159 150.869736,183.698898 149.022537,182.700638 
	C149.225006,180.080872 150.870483,180.605545 152.056381,180.551483 
	C166.797272,179.879410 173.860718,172.774979 175.802017,158.016098 
	C176.706482,151.139954 176.081879,144.197937 176.956512,137.357056 
	C177.421997,137.358887 177.887466,137.360703 178.352951,137.362518 
	C178.352951,142.068573 178.418930,146.775787 178.337860,151.480438 
	C178.208328,158.997406 180.208023,165.888992 184.177734,172.237640 
	C187.817978,178.059372 192.864761,181.172272 199.942764,180.751678 
	C201.909653,180.634827 204.227112,179.890762 205.896637,181.935165 
	C204.662811,184.280136 202.674850,183.588577 200.973129,183.402649 
	C192.286453,182.453583 186.834839,187.035126 182.893692,194.012589 
	C178.463943,201.855072 178.408264,210.548035 178.374420,219.213348 
	C178.364288,221.805283 178.372849,224.397293 178.372849,228.005981 
	C175.708282,225.641953 177.061111,223.552338 176.622742,221.440674 
z"/>
</svg>